# xmcd
# Track frame offsets:
# 150
# 12424
# 24933
# 39237
# 54964
# 67355
# 81253
# 96964
# 109272
# 121830
#
# Disc length: 1832 seconds
# Revision: 0
# Processed by: cddbd v1.5.1PL0 Copyright (c) Steve Scherf et al.
# Submitted via: VisiTrax 2.9.9.209 - For more info visit www.synapsa.com
#
DISCID=7c07260a
DTITLE=Tammy Malone - He'll be back
DYEAR=4
DGENRE=
TTITLE0=Holding on to the good life
TTITLE1=He'll be back
TTITLE2=It might have been worth it
TTITLE3=I believe
TTITLE4=That's what a woman thinks
TTITLE5=Midnight magic
TTITLE6=Wake up
TTITLE7=Cowgirl
TTITLE8=Just for a moment
TTITLE9=Those were the nights
EXTD=
EXTT0=
EXTT1=
EXTT2=
EXTT3=
EXTT4=
EXTT5=
EXTT6=
EXTT7=
EXTT8=
EXTT9=
PLAYORDER=
